# xmcd CD database file
#
# Track frame offsets:
#	150
#	11947
#	23307
#	37947
#	50727
#	70955
#	81362
#	91830
#	107990
#	120935
#	132500
#	144965
#	158357
#	175302
#	187482
#	199665
#
# Disc length: 2817 seconds
#
# Revision: 0
# Processed by: cddbd v1.5PL3 Copyright (c) Steve Scherf et al.
# Submitted via: CDex 1.50
#
DISCID=d50aff10
DTITLE=Boxcar Willie - Memories
DYEAR=1900
DGENRE=Country
TTITLE0=We Made Memories
TTITLE1=Tomorow The Sun's Gonna Shine
TTITLE2=Blue, Blue Days
TTITLE3=Booze, Broads And Bad Times
TTITLE4=I'm So Lonesome I Could Cry
TTITLE5=Your Tip's On The Table, Mable
TTITLE6=Tennessee Rain
TTITLE7=Rebel Soldier
TTITLE8=Depressin' Recession Blues
TTITLE9=I Was Kind Of In The Neighborhood
TTITLE10=Streamline Cannonball
TTITLE11=Everytime You Touch Me
TTITLE12=Mansion On The Hill
TTITLE13=The Old Iron Trail
TTITLE14=Waltz Across Texas
TTITLE15=S.U.C.K.E.R.
EXTD=
EXTT0=
EXTT1=
EXTT2=
EXTT3=
EXTT4=
EXTT5=
EXTT6=
EXTT7=
EXTT8=
EXTT9=
EXTT10=
EXTT11=
EXTT12=
EXTT13=
EXTT14=
EXTT15=
PLAYORDER=
